<svg width="969" height="393" viewBox="0 0 969 393" fill="none" xmlns="http://www.w3.org/2000/svg">
<path d="M453.2 362L478.8 292H494.1L519.6 362H505.3L486.4 307.4L467.4 362H453.2ZM464.5 346.1L468.1 335.6H503.7L507.2 346.1H464.5ZM548.555 363.2C543.955 363.2 539.821 362.067 536.155 359.8C532.555 357.533 529.721 354.4 527.655 350.4C525.588 346.4 524.555 341.9 524.555 336.9C524.555 331.767 525.588 327.233 527.655 323.3C529.788 319.3 532.688 316.167 536.355 313.9C540.088 311.567 544.255 310.4 548.855 310.4C552.455 310.4 555.621 311.067 558.355 312.4C561.088 313.733 563.288 315.633 564.955 318.1V290H578.455V362H566.455L564.955 355.1C563.955 356.5 562.688 357.833 561.155 359.1C559.688 360.367 557.921 361.367 555.855 362.1C553.788 362.833 551.355 363.2 548.555 363.2ZM551.755 351.4C554.421 351.4 556.755 350.8 558.755 349.6C560.821 348.333 562.421 346.6 563.555 344.4C564.688 342.2 565.255 339.667 565.255 336.8C565.255 333.933 564.688 331.4 563.555 329.2C562.421 327 560.821 325.3 558.755 324.1C556.755 322.833 554.421 322.2 551.755 322.2C549.221 322.2 546.921 322.833 544.855 324.1C542.788 325.3 541.155 327 539.955 329.2C538.821 331.4 538.255 333.9 538.255 336.7C538.255 339.633 538.821 342.2 539.955 344.4C541.155 346.6 542.755 348.333 544.755 349.6C546.821 350.8 549.155 351.4 551.755 351.4ZM605.182 362L586.682 311.6H600.882L613.382 349.3L625.882 311.6H639.982L621.582 362H605.182ZM648.525 362V311.6H662.025V362H648.525ZM655.325 304.7C652.925 304.7 650.925 304 649.325 302.6C647.792 301.133 647.025 299.3 647.025 297.1C647.025 294.9 647.792 293.1 649.325 291.7C650.925 290.233 652.925 289.5 655.325 289.5C657.792 289.5 659.792 290.233 661.325 291.7C662.925 293.1 663.725 294.9 663.725 297.1C663.725 299.3 662.925 301.133 661.325 302.6C659.792 304 657.792 304.7 655.325 304.7ZM696.266 363.2C691.666 363.2 687.666 362.467 684.266 361C680.866 359.533 678.2 357.5 676.266 354.9C674.333 352.3 673.233 349.367 672.966 346.1H686.366C686.7 347.367 687.266 348.533 688.066 349.6C688.866 350.6 689.933 351.4 691.266 352C692.6 352.6 694.2 352.9 696.066 352.9C697.866 352.9 699.333 352.667 700.466 352.2C701.6 351.667 702.433 350.967 702.966 350.1C703.566 349.233 703.866 348.333 703.866 347.4C703.866 346 703.466 344.933 702.666 344.2C701.866 343.4 700.7 342.767 699.166 342.3C697.633 341.833 695.766 341.367 693.566 340.9C691.166 340.433 688.8 339.867 686.466 339.2C684.2 338.467 682.166 337.567 680.366 336.5C678.566 335.433 677.133 334.067 676.066 332.4C675 330.733 674.466 328.667 674.466 326.2C674.466 323.2 675.266 320.533 676.866 318.2C678.466 315.8 680.8 313.9 683.866 312.5C686.933 311.1 690.633 310.4 694.966 310.4C701.033 310.4 705.833 311.767 709.366 314.5C712.9 317.233 715 321 715.666 325.8H702.966C702.566 324.267 701.666 323.067 700.266 322.2C698.933 321.267 697.133 320.8 694.866 320.8C692.466 320.8 690.633 321.233 689.366 322.1C688.1 322.967 687.466 324.1 687.466 325.5C687.466 326.433 687.866 327.267 688.666 328C689.533 328.733 690.733 329.367 692.266 329.9C693.8 330.367 695.666 330.833 697.866 331.3C701.733 332.1 705.133 333.033 708.066 334.1C711 335.1 713.3 336.567 714.966 338.5C716.633 340.367 717.466 343.1 717.466 346.7C717.466 349.9 716.6 352.767 714.866 355.3C713.133 357.767 710.666 359.7 707.466 361.1C704.333 362.5 700.6 363.2 696.266 363.2ZM752.689 363.2C747.889 363.2 743.556 362.1 739.689 359.9C735.889 357.633 732.856 354.533 730.589 350.6C728.389 346.6 727.289 342.033 727.289 336.9C727.289 331.633 728.389 327.033 730.589 323.1C732.856 319.1 735.922 316 739.789 313.8C743.656 311.533 747.989 310.4 752.789 310.4C757.656 310.4 761.989 311.533 765.789 313.8C769.656 316 772.689 319.1 774.889 323.1C777.156 327.033 778.289 331.6 778.289 336.8C778.289 342 777.156 346.6 774.889 350.6C772.689 354.533 769.656 357.633 765.789 359.9C761.922 362.1 757.556 363.2 752.689 363.2ZM752.689 351.5C754.956 351.5 756.956 350.967 758.689 349.9C760.489 348.833 761.889 347.2 762.889 345C763.956 342.8 764.489 340.067 764.489 336.8C764.489 333.533 763.956 330.833 762.889 328.7C761.889 326.5 760.489 324.867 758.689 323.8C756.956 322.667 754.989 322.1 752.789 322.1C750.656 322.1 748.689 322.667 746.889 323.8C745.089 324.867 743.656 326.5 742.589 328.7C741.589 330.833 741.089 333.533 741.089 336.8C741.089 340.067 741.589 342.8 742.589 345C743.656 347.2 745.056 348.833 746.789 349.9C748.589 350.967 750.556 351.5 752.689 351.5ZM789.924 362V311.6H801.924L803.224 320.9C804.424 318.7 805.924 316.833 807.724 315.3C809.591 313.767 811.691 312.567 814.024 311.7C816.424 310.833 819.058 310.4 821.924 310.4V324.7H817.324C815.324 324.7 813.458 324.933 811.724 325.4C810.058 325.867 808.591 326.633 807.324 327.7C806.058 328.7 805.091 330.1 804.424 331.9C803.758 333.7 803.424 335.967 803.424 338.7V362H789.924ZM851.442 363.2C846.842 363.2 842.842 362.467 839.442 361C836.042 359.533 833.376 357.5 831.442 354.9C829.509 352.3 828.409 349.367 828.142 346.1H841.542C841.876 347.367 842.442 348.533 843.242 349.6C844.042 350.6 845.109 351.4 846.442 352C847.776 352.6 849.376 352.9 851.242 352.9C853.042 352.9 854.509 352.667 855.642 352.2C856.776 351.667 857.609 350.967 858.142 350.1C858.742 349.233 859.042 348.333 859.042 347.4C859.042 346 858.642 344.933 857.842 344.2C857.042 343.4 855.876 342.767 854.342 342.3C852.809 341.833 850.942 341.367 848.742 340.9C846.342 340.433 843.976 339.867 841.642 339.2C839.376 338.467 837.342 337.567 835.542 336.5C833.742 335.433 832.309 334.067 831.242 332.4C830.176 330.733 829.642 328.667 829.642 326.2C829.642 323.2 830.442 320.533 832.042 318.2C833.642 315.8 835.976 313.9 839.042 312.5C842.109 311.1 845.809 310.4 850.142 310.4C856.209 310.4 861.009 311.767 864.542 314.5C868.076 317.233 870.176 321 870.842 325.8H858.142C857.742 324.267 856.842 323.067 855.442 322.2C854.109 321.267 852.309 320.8 850.042 320.8C847.642 320.8 845.809 321.233 844.542 322.1C843.276 322.967 842.642 324.1 842.642 325.5C842.642 326.433 843.042 327.267 843.842 328C844.709 328.733 845.909 329.367 847.442 329.9C848.976 330.367 850.842 330.833 853.042 331.3C856.909 332.1 860.309 333.033 863.242 334.1C866.176 335.1 868.476 336.567 870.142 338.5C871.809 340.367 872.642 343.1 872.642 346.7C872.642 349.9 871.776 352.767 870.042 355.3C868.309 357.767 865.842 359.7 862.642 361.1C859.509 362.5 855.776 363.2 851.442 363.2Z" fill="#343434"/>
<path d="M4 303H48.4349L273.692 35.363V172.777H195.866L169.925 206.425H279.856V303H323.777L308.88 3H261.363L4 303Z" fill="#343434" stroke="#343434" stroke-width="3"/>
<path d="M361.2 201V101.8H388.2V201H361.2ZM374.8 89.2C369.867 89.2 365.8 87.8 362.6 85C359.533 82.0667 358 78.4 358 74C358 69.6 359.533 65.9333 362.6 63C365.8 60.0667 369.867 58.6 374.8 58.6C379.733 58.6 383.733 60.0667 386.8 63C389.867 65.9333 391.4 69.6 391.4 74C391.4 78.2667 389.867 81.8667 386.8 84.8C383.733 87.7333 379.733 89.2 374.8 89.2ZM413.414 201V101.8H437.014L439.214 118.4H440.014C443.081 112.133 447.347 107.4 452.814 104.2C458.281 101 464.614 99.4 471.814 99.4C476.747 99.4 481.281 100.067 485.414 101.4C489.681 102.733 493.414 104.867 496.614 107.8C499.814 110.6 502.481 114.333 504.614 119H505.414C509.147 112.867 513.747 108.067 519.214 104.6C524.814 101.133 531.881 99.4 540.414 99.4C548.014 99.4 554.614 101.2 560.214 104.8C565.814 108.267 570.081 113.4 573.014 120.2C576.081 127 577.614 135.4 577.614 145.4V201H550.814V147.8C550.814 139.533 549.214 133.2 546.014 128.8C542.814 124.4 537.814 122.2 531.014 122.2C526.481 122.2 522.614 123.2 519.414 125.2C516.214 127.067 513.681 129.933 511.814 133.8C509.947 137.533 509.014 142.2 509.014 147.8V201H482.214V147.8C482.214 139.533 480.614 133.2 477.414 128.8C474.214 124.4 469.147 122.2 462.214 122.2C458.214 122.2 454.547 123.333 451.214 125.6C447.881 127.733 445.214 130.867 443.214 135C441.347 139 440.414 143.933 440.414 149.8V201H413.414ZM647.511 203.4C637.378 203.4 628.378 201.267 620.511 197C612.778 192.733 606.711 186.733 602.311 179C597.911 171.267 595.711 162.4 595.711 152.4C595.711 142 597.844 132.867 602.111 125C606.511 117 612.578 110.733 620.311 106.2C628.178 101.667 637.244 99.4 647.511 99.4C657.511 99.4 666.244 101.533 673.711 105.8C681.178 110.067 687.044 115.933 691.311 123.4C695.578 130.733 697.711 139.067 697.711 148.4C697.711 149.733 697.644 151.267 697.511 153C697.511 154.6 697.444 156.267 697.311 158H614.911V141.4H670.311C669.911 135.133 667.578 130.133 663.311 126.4C659.178 122.667 653.978 120.8 647.711 120.8C643.044 120.8 638.778 121.867 634.911 124C631.044 126 627.978 129.133 625.711 133.4C623.444 137.533 622.311 142.8 622.311 149.2V155C622.311 160.467 623.378 165.2 625.511 169.2C627.644 173.067 630.578 176.067 634.311 178.2C638.178 180.333 642.511 181.4 647.311 181.4C652.244 181.4 656.378 180.333 659.711 178.2C663.044 175.933 665.578 173.067 667.311 169.6H694.711C692.844 175.867 689.711 181.6 685.311 186.8C680.911 191.867 675.511 195.933 669.111 199C662.711 201.933 655.511 203.4 647.511 203.4ZM715.648 201V101.8H738.648L741.048 123.6H741.848C744.782 116.533 747.982 111.333 751.448 108C754.915 104.533 758.848 102.267 763.248 101.2C767.782 100 772.848 99.4 778.448 99.4V128H771.048C766.515 128 762.448 128.533 758.848 129.6C755.382 130.533 752.448 132.133 750.048 134.4C747.648 136.533 745.782 139.4 744.448 143C743.248 146.6 742.648 150.933 742.648 156V201H715.648ZM790.523 201V179.8L840.923 123.8H791.123V101.8H871.323V123L820.323 179H872.323V201H790.523Z" fill="#343434"/>
<line x1="355.5" y1="250.5" x2="875.5" y2="250.5" stroke="#343434" stroke-width="5" stroke-linecap="round"/>
<path d="M965.052 3L831 68.285C831 68.285 915.87 39.9948 918.917 45.2176C921.964 50.4404 918.917 87 918.917 87L965.052 3Z" fill="#343434" stroke="#343434" stroke-width="2.6114"/>
</svg>
