<svg width="344" height="73" viewBox="0 0 344 73" fill="none" xmlns="http://www.w3.org/2000/svg">
<circle cx="11.9111" cy="61.0888" r="11.9111" fill="#212121"/>
<path d="M69.8667 70.8667H46.5778L23.8223 24.4667L35.0223 1L69.8667 70.8667Z" fill="#212121" stroke="#212121" stroke-width="0.355556"/>
<path d="M106.263 44.1504H96.9526L95.0249 51H92.2769L100.89 21.5918H102.285L110.939 51H108.211L106.263 44.1504ZM97.6704 41.6279H105.566L101.69 28.0723L101.608 26.9854L101.526 28.0723L97.6704 41.6279ZM114.507 24.9551V21.5918H117.44V24.9551H114.507ZM114.712 51V30H117.235V51H114.712ZM145.31 51V35.6191C145.31 35.1133 145.214 34.6416 145.023 34.2041C144.832 33.7529 144.572 33.3633 144.244 33.0352C143.916 32.707 143.526 32.4473 143.075 32.2559C142.637 32.0645 142.166 31.9688 141.66 31.9688H140.409C139.903 31.9688 139.424 32.0645 138.973 32.2559C138.536 32.4473 138.146 32.707 137.804 33.0352C137.476 33.3633 137.216 33.7529 137.025 34.2041C136.833 34.6416 136.738 35.1133 136.738 35.6191V51H134.236V35.6191C134.236 35.1133 134.14 34.6416 133.949 34.2041C133.757 33.7529 133.491 33.3633 133.149 33.0352C132.821 32.707 132.431 32.4473 131.98 32.2559C131.542 32.0645 131.071 31.9688 130.565 31.9688H129.314C128.808 31.9688 128.33 32.0645 127.878 32.2559C127.441 32.4473 127.058 32.707 126.73 33.0352C126.402 33.3633 126.142 33.7529 125.951 34.2041C125.759 34.6416 125.664 35.1133 125.664 35.6191V51H123.141V30H123.982L125.356 32.1328C125.93 31.3535 126.648 30.7383 127.509 30.2871C128.384 29.8223 129.334 29.5898 130.36 29.5898H130.565C131.754 29.5898 132.828 29.8838 133.785 30.4717C134.742 31.0596 135.48 31.8389 136 32.8096C136.259 32.3311 136.581 31.8936 136.963 31.4971C137.346 31.1006 137.77 30.7656 138.235 30.4922C138.7 30.2051 139.206 29.9863 139.752 29.8359C140.299 29.6719 140.867 29.5898 141.455 29.5898H141.66C142.507 29.5898 143.307 29.7539 144.059 30.082C144.811 30.3965 145.467 30.834 146.028 31.3945C146.588 31.9551 147.026 32.6113 147.34 33.3633C147.668 34.1152 147.833 34.915 147.833 35.7627V51H145.31ZM166.905 45.2373C166.905 46.085 166.741 46.8848 166.413 47.6367C166.098 48.3887 165.661 49.0449 165.1 49.6055C164.54 50.166 163.883 50.6104 163.131 50.9385C162.379 51.2529 161.58 51.4102 160.732 51.4102H159.05C158.203 51.4102 157.403 51.2529 156.651 50.9385C155.899 50.6104 155.243 50.166 154.682 49.6055C154.122 49.0449 153.677 48.3887 153.349 47.6367C153.035 46.8848 152.877 46.085 152.877 45.2373V35.7627C152.877 34.915 153.035 34.1152 153.349 33.3633C153.677 32.6113 154.122 31.9551 154.682 31.3945C155.243 30.834 155.899 30.3965 156.651 30.082C157.403 29.7539 158.203 29.5898 159.05 29.5898H160.732C161.58 29.5898 162.379 29.7539 163.131 30.082C163.883 30.3965 164.54 30.834 165.1 31.3945C165.661 31.9551 166.098 32.6113 166.413 33.3633C166.741 34.1152 166.905 34.915 166.905 35.7627V40.7051H155.4V45.3809C155.4 45.8867 155.496 46.3652 155.687 46.8164C155.878 47.2539 156.138 47.6367 156.466 47.9648C156.794 48.293 157.177 48.5527 157.615 48.7441C158.066 48.9355 158.544 49.0312 159.05 49.0312H160.732C161.238 49.0312 161.709 48.9355 162.147 48.7441C162.598 48.5527 162.988 48.293 163.316 47.9648C163.644 47.6367 163.904 47.2539 164.095 46.8164C164.287 46.3652 164.382 45.8867 164.382 45.3809V43.9863L166.905 44.3965V45.2373ZM164.382 35.6191C164.382 35.1133 164.287 34.6416 164.095 34.2041C163.904 33.7529 163.644 33.3633 163.316 33.0352C162.988 32.707 162.598 32.4473 162.147 32.2559C161.709 32.0645 161.238 31.9688 160.732 31.9688H159.05C158.544 31.9688 158.066 32.0645 157.615 32.2559C157.177 32.4473 156.794 32.707 156.466 33.0352C156.138 33.3633 155.878 33.7529 155.687 34.2041C155.496 34.6416 155.4 35.1133 155.4 35.6191V38.7363H164.382V35.6191ZM178.123 32.3994C177.617 32.3994 177.138 32.4951 176.687 32.6865C176.25 32.8779 175.867 33.1377 175.539 33.4658C175.21 33.7939 174.951 34.1836 174.759 34.6348C174.568 35.0723 174.472 35.5439 174.472 36.0498V51H171.95V30H172.791L174.165 32.1328C174.739 31.3535 175.457 30.7383 176.318 30.2871C177.193 29.8223 178.143 29.5898 179.168 29.5898H180.645V32.3994H178.123ZM183.167 51V49.8721L193.75 32.3994H183.578V30H197.195V31.1279L186.613 48.6006H197.195V51H183.167ZM222.953 44.1504H213.642L211.714 51H208.966L217.58 21.5918H218.974L227.628 51H224.901L222.953 44.1504ZM214.36 41.6279H222.255L218.379 28.0723L218.297 26.9854L218.215 28.0723L214.36 41.6279ZM243.748 51L242.353 48.8672C241.779 49.6465 241.061 50.2686 240.2 50.7334C239.338 51.1846 238.395 51.4102 237.37 51.4102H236.734C235.886 51.4102 235.086 51.2529 234.334 50.9385C233.583 50.6104 232.926 50.166 232.366 49.6055C231.805 49.0449 231.361 48.3887 231.033 47.6367C230.718 46.8848 230.561 46.085 230.561 45.2373V35.7627C230.561 34.915 230.718 34.1152 231.033 33.3633C231.361 32.6113 231.805 31.9551 232.366 31.3945C232.926 30.834 233.583 30.3965 234.334 30.082C235.086 29.7539 235.886 29.5898 236.734 29.5898H237.37C238.313 29.5898 239.188 29.7812 239.995 30.1641C240.801 30.5469 241.492 31.0801 242.066 31.7637V21.5918H244.588V51H243.748ZM242.066 35.6191C242.066 35.1133 241.97 34.6416 241.779 34.2041C241.587 33.7529 241.328 33.3633 241 33.0352C240.671 32.707 240.282 32.4473 239.831 32.2559C239.393 32.0645 238.921 31.9688 238.416 31.9688H236.734C236.228 31.9688 235.75 32.0645 235.298 32.2559C234.861 32.4473 234.478 32.707 234.15 33.0352C233.822 33.3633 233.562 33.7529 233.371 34.2041C233.179 34.6416 233.083 35.1133 233.083 35.6191V45.3809C233.083 45.8867 233.179 46.3652 233.371 46.8164C233.562 47.2539 233.822 47.6367 234.15 47.9648C234.478 48.293 234.861 48.5527 235.298 48.7441C235.75 48.9355 236.228 49.0312 236.734 49.0312H238.416C238.921 49.0312 239.393 48.9355 239.831 48.7441C240.282 48.5527 240.671 48.293 241 47.9648C241.328 47.6367 241.587 47.2539 241.779 46.8164C241.97 46.3652 242.066 45.8867 242.066 45.3809V35.6191ZM256.216 51H254.965L247.521 30H250.043L255.519 45.9141L255.601 47.001L255.683 45.9141L261.138 30H263.661L256.216 51ZM267.25 24.9551V21.5918H270.182V24.9551H267.25ZM267.455 51V30H269.977V51H267.455ZM290.321 45.668C290.321 46.5156 290.15 47.2949 289.808 48.0059C289.466 48.7031 289.001 49.3047 288.414 49.8105C287.826 50.3164 287.142 50.7129 286.363 51C285.597 51.2734 284.791 51.4102 283.943 51.4102H282.261C281.414 51.4102 280.6 51.2529 279.821 50.9385C279.055 50.6104 278.378 50.166 277.791 49.6055C277.216 49.0449 276.751 48.3887 276.396 47.6367C276.054 46.8848 275.883 46.085 275.883 45.2373V44.3965L278.406 43.9863V45.3809C278.406 45.8867 278.508 46.3652 278.713 46.8164C278.932 47.2539 279.219 47.6367 279.575 47.9648C279.93 48.293 280.34 48.5527 280.805 48.7441C281.27 48.9355 281.755 49.0312 282.261 49.0312H283.943C284.449 49.0312 284.934 48.9561 285.399 48.8057C285.864 48.6553 286.274 48.4434 286.629 48.1699C286.999 47.8828 287.286 47.541 287.491 47.1445C287.709 46.748 287.819 46.2969 287.819 45.791C287.819 45.0391 287.655 44.4238 287.327 43.9453C286.999 43.4668 286.561 43.0703 286.014 42.7559C285.481 42.4277 284.866 42.1611 284.168 41.9561C283.485 41.7373 282.781 41.5254 282.056 41.3203C281.332 41.1016 280.621 40.8555 279.923 40.582C279.24 40.3086 278.625 39.9531 278.078 39.5156C277.544 39.0645 277.114 38.5039 276.786 37.834C276.458 37.1641 276.293 36.3301 276.293 35.332C276.293 34.4844 276.458 33.7119 276.786 33.0146C277.114 32.3037 277.558 31.6953 278.119 31.1895C278.679 30.6836 279.329 30.2939 280.067 30.0205C280.819 29.7334 281.619 29.5898 282.466 29.5898H283.943C284.791 29.5898 285.59 29.7539 286.342 30.082C287.094 30.3965 287.75 30.834 288.311 31.3945C288.872 31.9551 289.309 32.6113 289.624 33.3633C289.952 34.1152 290.116 34.915 290.116 35.7627V35.8447L287.593 36.2549V35.6191C287.593 35.1133 287.498 34.6416 287.306 34.2041C287.115 33.7529 286.855 33.3633 286.527 33.0352C286.199 32.707 285.809 32.4473 285.358 32.2559C284.92 32.0645 284.449 31.9688 283.943 31.9688H282.466C281.96 31.9688 281.482 32.0439 281.031 32.1943C280.593 32.3447 280.21 32.5635 279.882 32.8506C279.554 33.124 279.294 33.459 279.103 33.8555C278.912 34.252 278.816 34.7031 278.816 35.209C278.816 35.9336 278.98 36.5283 279.308 36.9932C279.636 37.4443 280.067 37.8271 280.6 38.1416C281.147 38.4561 281.762 38.7227 282.446 38.9414C283.143 39.1465 283.847 39.3652 284.558 39.5977C285.283 39.8164 285.987 40.0693 286.67 40.3564C287.368 40.6436 287.983 41.0127 288.516 41.4639C289.063 41.915 289.5 42.4824 289.829 43.166C290.157 43.8359 290.321 44.6699 290.321 45.668ZM309.188 45.2373C309.188 46.085 309.024 46.8848 308.696 47.6367C308.381 48.3887 307.944 49.0449 307.383 49.6055C306.823 50.166 306.167 50.6104 305.415 50.9385C304.663 51.2529 303.863 51.4102 303.015 51.4102H301.333C300.486 51.4102 299.686 51.2529 298.934 50.9385C298.182 50.6104 297.526 50.166 296.965 49.6055C296.405 49.0449 295.96 48.3887 295.632 47.6367C295.318 46.8848 295.161 46.085 295.161 45.2373V35.7627C295.161 34.915 295.318 34.1152 295.632 33.3633C295.96 32.6113 296.405 31.9551 296.965 31.3945C297.526 30.834 298.182 30.3965 298.934 30.082C299.686 29.7539 300.486 29.5898 301.333 29.5898H303.015C303.863 29.5898 304.663 29.7539 305.415 30.082C306.167 30.3965 306.823 30.834 307.383 31.3945C307.944 31.9551 308.381 32.6113 308.696 33.3633C309.024 34.1152 309.188 34.915 309.188 35.7627V45.2373ZM306.666 35.6191C306.666 35.1133 306.57 34.6416 306.378 34.2041C306.187 33.7529 305.927 33.3633 305.599 33.0352C305.271 32.707 304.881 32.4473 304.43 32.2559C303.993 32.0645 303.521 31.9688 303.015 31.9688H301.333C300.828 31.9688 300.349 32.0645 299.898 32.2559C299.46 32.4473 299.078 32.707 298.75 33.0352C298.421 33.3633 298.162 33.7529 297.97 34.2041C297.779 34.6416 297.683 35.1133 297.683 35.6191V45.3809C297.683 45.8867 297.779 46.3652 297.97 46.8164C298.162 47.2539 298.421 47.6367 298.75 47.9648C299.078 48.293 299.46 48.5527 299.898 48.7441C300.349 48.9355 300.828 49.0312 301.333 49.0312H303.015C303.521 49.0312 303.993 48.9355 304.43 48.7441C304.881 48.5527 305.271 48.293 305.599 47.9648C305.927 47.6367 306.187 47.2539 306.378 46.8164C306.57 46.3652 306.666 45.8867 306.666 45.3809V35.6191ZM320.406 32.3994C319.9 32.3994 319.421 32.4951 318.97 32.6865C318.533 32.8779 318.15 33.1377 317.822 33.4658C317.494 33.7939 317.234 34.1836 317.042 34.6348C316.851 35.0723 316.755 35.5439 316.755 36.0498V51H314.233V30H315.074L316.448 32.1328C317.022 31.3535 317.74 30.7383 318.601 30.2871C319.476 29.8223 320.426 29.5898 321.452 29.5898H322.928V32.3994H320.406ZM340.729 45.668C340.729 46.5156 340.558 47.2949 340.216 48.0059C339.875 48.7031 339.41 49.3047 338.822 49.8105C338.234 50.3164 337.55 50.7129 336.771 51C336.005 51.2734 335.199 51.4102 334.351 51.4102H332.669C331.822 51.4102 331.008 51.2529 330.229 50.9385C329.463 50.6104 328.787 50.166 328.199 49.6055C327.625 49.0449 327.16 48.3887 326.804 47.6367C326.462 46.8848 326.292 46.085 326.292 45.2373V44.3965L328.814 43.9863V45.3809C328.814 45.8867 328.917 46.3652 329.122 46.8164C329.34 47.2539 329.627 47.6367 329.983 47.9648C330.338 48.293 330.749 48.5527 331.213 48.7441C331.678 48.9355 332.164 49.0312 332.669 49.0312H334.351C334.857 49.0312 335.342 48.9561 335.807 48.8057C336.272 48.6553 336.682 48.4434 337.038 48.1699C337.407 47.8828 337.694 47.541 337.899 47.1445C338.118 46.748 338.227 46.2969 338.227 45.791C338.227 45.0391 338.063 44.4238 337.735 43.9453C337.407 43.4668 336.969 43.0703 336.422 42.7559C335.889 42.4277 335.274 42.1611 334.577 41.9561C333.893 41.7373 333.189 41.5254 332.464 41.3203C331.74 41.1016 331.029 40.8555 330.332 40.582C329.648 40.3086 329.033 39.9531 328.486 39.5156C327.953 39.0645 327.522 38.5039 327.194 37.834C326.866 37.1641 326.702 36.3301 326.702 35.332C326.702 34.4844 326.866 33.7119 327.194 33.0146C327.522 32.3037 327.966 31.6953 328.527 31.1895C329.087 30.6836 329.737 30.2939 330.475 30.0205C331.227 29.7334 332.027 29.5898 332.875 29.5898H334.351C335.199 29.5898 335.999 29.7539 336.75 30.082C337.502 30.3965 338.159 30.834 338.719 31.3945C339.28 31.9551 339.717 32.6113 340.032 33.3633C340.36 34.1152 340.524 34.915 340.524 35.7627V35.8447L338.001 36.2549V35.6191C338.001 35.1133 337.906 34.6416 337.714 34.2041C337.523 33.7529 337.263 33.3633 336.935 33.0352C336.607 32.707 336.217 32.4473 335.766 32.2559C335.329 32.0645 334.857 31.9688 334.351 31.9688H332.875C332.369 31.9688 331.89 32.0439 331.439 32.1943C331.001 32.3447 330.619 32.5635 330.291 32.8506C329.962 33.124 329.703 33.459 329.511 33.8555C329.32 34.252 329.224 34.7031 329.224 35.209C329.224 35.9336 329.388 36.5283 329.716 36.9932C330.044 37.4443 330.475 37.8271 331.008 38.1416C331.555 38.4561 332.17 38.7227 332.854 38.9414C333.551 39.1465 334.255 39.3652 334.966 39.5977C335.691 39.8164 336.395 40.0693 337.079 40.3564C337.776 40.6436 338.391 41.0127 338.924 41.4639C339.471 41.915 339.909 42.4824 340.237 43.166C340.565 43.8359 340.729 44.6699 340.729 45.668Z" fill="#212121"/>
</svg>
