<svg width="34" height="34" viewBox="0 0 34 34" fill="none" xmlns="http://www.w3.org/2000/svg">
<path d="M12.75 14.1663L17.3655 17.6287C17.6514 17.8431 18.0079 17.9416 18.3634 17.9043C18.7188 17.867 19.0471 17.6967 19.2822 17.4275L28.3333 7.08301" stroke="#A968FF" stroke-width="2.5" stroke-linecap="round"/>
<path d="M29.75 16.9998C29.7501 19.6638 28.9156 22.261 27.3638 24.4265C25.8121 26.592 23.621 28.2171 21.0983 29.0734C18.5756 29.9297 15.848 29.9743 13.2987 29.2009C10.7493 28.4276 8.50627 26.875 6.88454 24.7614C5.26281 22.6478 4.34388 20.0793 4.25681 17.4167C4.16975 14.754 4.91892 12.131 6.39912 9.91595C7.87931 7.70093 10.0162 6.0052 12.5095 5.06693C15.0029 4.12866 17.7276 3.99499 20.3008 4.68469" stroke="#A968FF" stroke-width="2.5" stroke-linecap="round"/>
</svg>
